<svg viewBox="-960 -469 1920 938" width="1920" height="938" style="background-color: rgb(255, 255, 255);" xmlns="http://www.w3.org/2000/svg"><path d="M-412.75047891458917,46.2162774363493L-447.97287154961555,43.895087378151445M-447.97287154961555,-150.63768013410152L-447.97287154961555,43.895087378151445M-447.97287154961555,43.895087378151445L-503.16063020872514,87.95705388655648M-412.75047891458917,-148.31649007590366L-412.75047891458917,46.2162774363493M-412.75047891458917,46.2162774363493L-467.93823757369876,90.27824394475434" style="fill:none;stroke:rgb(0,0,0);stroke-width:1;stroke-linecap:round"></path><path d="M-412.75047891458917,46.2162774363493L-447.97287154961555,43.89508737815145L-447.97287154961555,-150.63768013410152z" style="fill:rgb(238,238,238); fill-opacity: 0.27"></path><path d="M-234.30851603826318,57.97577698215656L-345.42279492218404,50.653237535682436M-345.42279492218404,-143.87952997657052L-345.42279492218404,50.653237535682436M-345.42279492218404,50.653237535682436L-400.6105535812936,94.71520404408746" style="fill:none;stroke:rgb(0,0,0);stroke-width:1;stroke-linecap:round"></path><path d="M-412.75047891458917,-148.31649007590366L-412.75047891458917,46.2162774363493L-447.97287154961555,-150.63768013410152z" style="fill:rgb(238,238,238); fill-opacity: 0.27"></path><path d="M-412.75047891458917,-148.31649007590366L-447.97287154961555,-150.63768013410152M-447.97287154961555,-150.63768013410152L-503.16063020872514,-106.57571362569648" style="fill:none;stroke:rgb(0,0,0);stroke-width:1;stroke-linecap:round"></path><path d="M-234.30851603826318,57.97577698215656L-345.42279492218404,50.653237535682436L-345.42279492218404,-143.87952997657052z" style="fill:rgb(238,238,238); fill-opacity: 0.27"></path><path d="M-412.75047891458917,-148.31649007590366L-467.93823757369876,-104.25452356749862M-234.30851603826318,-136.55699053009639L-234.30851603826318,57.97577698215656M-234.30851603826318,57.97577698215656L-289.4962746973727,102.0377434905616" style="fill:none;stroke:rgb(0,0,0);stroke-width:1;stroke-linecap:round"></path><path d="M-503.160630208725,87.9570538865565L-447.97287154961555,43.89508737815145L-412.75047891458917,46.2162774363493z" style="fill:rgb(238,238,238); fill-opacity: 0.27"></path><path d="M-234.30851603826318,-136.55699053009639L-345.42279492218404,-143.87952997657052M-345.42279492218404,-143.87952997657052L-400.6105535812936,-99.81756346816549" style="fill:none;stroke:rgb(0,0,0);stroke-width:1;stroke-linecap:round"></path><path d="M-234.30851603826318,-136.55699053009639L-234.30851603826318,57.97577698215656L-345.42279492218404,-143.87952997657052zM-467.93823757369876,90.27824394475434L-412.75047891458917,46.2162774363493L-412.75047891458917,-148.31649007590366zM-447.97287154961555,-150.63768013410152L-447.97287154961555,43.89508737815145L-503.160630208725,-106.57571362569647zM-400.61055358129363,94.71520404408747L-345.42279492218404,50.653237535682436L-234.30851603826318,57.97577698215656z" style="fill:rgb(238,238,238); fill-opacity: 0.27"></path><path d="M-40.028327294214186,53.79194920231704L-173.3654521707386,45.00490251133514M-173.3654521707386,-104.51721504543393L-173.3654521707386,45.00490251133514M-173.3654521707386,45.00490251133514L-215.7839641954659,78.87188862531814M-234.30851603826318,-136.55699053009639L-289.4962746973727,-92.49502402169136" style="fill:none;stroke:rgb(0,0,0);stroke-width:1;stroke-linecap:round"></path><path d="M-467.93823757369876,-104.25452356749862L-412.75047891458917,-148.31649007590366L-447.97287154961555,-150.63768013410152zM-345.42279492218404,-143.87952997657052L-345.42279492218404,50.653237535682436L-400.61055358129363,-99.81756346816547z" style="fill:rgb(238,238,238); fill-opacity: 0.27"></path><path d="M-258.55061003001794,26.681605382439848L-369.66488891393874,19.359065935965727M-369.66488891393874,9.618571081193055L-369.66488891393874,19.359065935965727M-369.66488891393874,19.359065935965727L-372.42820784544796,21.565302774904712M-258.55061003001794,16.941110527667174L-369.66488891393874,9.618571081193055M-369.66488891393874,9.618571081193055L-372.42820784544796,11.824807920132038M-445.8381640538714,13.38444332696811L-481.06055668889775,11.06325326877026M-481.06055668889775,1.322758413997587L-481.06055668889775,11.06325326877026M-481.06055668889775,11.06325326877026L-483.8238756204071,13.269490107709244" style="fill:none;stroke:rgb(0,0,0);stroke-width:1;stroke-linecap:round"></path><path d="M-369.6648889139388,9.618571081193057L-369.6648889139388,19.35906593596573L-372.428207845448,11.82480792013204z" style="fill:rgb(153,221,255); fill-opacity: 0.4"></path><path d="M-445.8381640538714,3.643948472195438L-481.06055668889775,1.322758413997587M-481.06055668889775,1.322758413997587L-483.8238756204071,3.52899525293657" style="fill:none;stroke:rgb(0,0,0);stroke-width:1;stroke-linecap:round"></path><path d="M-40.02832729421418,53.791949202317035L-173.3654521707386,45.00490251133514L-173.3654521707386,-104.51721504543391z" style="fill:rgb(238,238,238); fill-opacity: 0.27"></path><path d="M-369.6648889139388,19.35906593596573L-372.428207845448,21.565302774904715L-372.428207845448,11.82480792013204zM-445.83816405387137,13.384443326968116L-481.06055668889775,11.063253268770268L-481.06055668889775,1.3227584139975959zM-481.06055668889775,1.3227584139975959L-481.06055668889775,11.063253268770268L-483.82387562040697,3.528995252936579z" style="fill:rgb(153,221,255); fill-opacity: 0.4"></path><path d="M-467.93823757369876,90.27824394475434L-503.160630208725,87.9570538865565L-412.75047891458917,46.2162774363493z" style="fill:rgb(238,238,238); fill-opacity: 0.27"></path><path d="M-372.42820784544796,11.824807920132038L-372.42820784544796,21.565302774904712M-372.42820784544796,21.565302774904712L-261.31392896152715,28.887842221378833" style="fill:none;stroke:rgb(0,0,0);stroke-width:1;stroke-linecap:round"></path><path d="M-483.82387562040697,13.26949010770925L-481.06055668889775,11.063253268770268L-445.83816405387137,13.384443326968116zM-481.06055668889775,11.063253268770268L-483.82387562040697,13.26949010770925L-483.82387562040697,3.528995252936579zM-258.55061003001794,26.68160538243985L-369.6648889139388,19.35906593596573L-369.6648889139388,9.618571081193057zM-445.83816405387137,3.6439484721954436L-445.83816405387137,13.384443326968116L-481.06055668889775,1.3227584139975959z" style="fill:rgb(153,221,255); fill-opacity: 0.4"></path><path d="M-372.42820784544796,11.824807920132038L-261.31392896152715,19.14734736660616M-483.8238756204071,3.52899525293657L-483.8238756204071,13.269490107709244M-483.8238756204071,13.269490107709244L-448.60148298538064,15.590680165907093M-445.8381640538714,3.643948472195438L-445.8381640538714,13.38444332696811M-445.8381640538714,13.38444332696811L-448.60148298538064,15.590680165907093M-445.83814113759473,3.6439492484932505L-445.83814113759473,13.384444103265922M-445.83814113759473,13.384444103265922L-448.6014596298862,15.590680591533008M-445.83814113759473,13.384444103265922L-379.8921390720072,14.054273714476233" style="fill:none;stroke:rgb(0,0,0);stroke-width:1;stroke-linecap:round"></path><path d="M-372.428207845448,21.565302774904715L-369.6648889139388,19.35906593596573L-258.55061003001794,26.68160538243985z" style="fill:rgb(153,221,255); fill-opacity: 0.4"></path><path d="M-289.49627469737277,102.0377434905616L-234.30851603826318,57.97577698215656L-234.30851603826318,-136.55699053009639z" style="fill:rgb(238,238,238); fill-opacity: 0.27"></path><path d="M-483.8238756204071,3.52899525293657L-448.60148298538064,5.850185311134421" style="fill:none;stroke:rgb(0,0,0);stroke-width:1;stroke-linecap:round"></path><path d="M-483.82387562040697,3.528995252936579L-448.60148298538064,5.850185311134426L-481.06055668889775,1.3227584139975959zM-448.60148298538064,5.850185311134426L-445.83816405387137,3.6439484721954436L-481.06055668889775,1.3227584139975959z" style="fill:rgb(153,221,255); fill-opacity: 0.4"></path><path d="M-445.8381640538714,3.643948472195438L-448.60148298538064,5.850185311134421M-445.83814113759473,3.6439492484932505L-448.6014596298862,5.850185736760335M-445.83814113759473,3.6439492484932505L-379.8921390720072,14.054273714476233" style="fill:none;stroke:rgb(0,0,0);stroke-width:1;stroke-linecap:round"></path><path d="M-448.60148298538064,15.5906801659071L-483.82387562040697,13.26949010770925L-445.83816405387137,13.384443326968116z" style="fill:rgb(153,221,255); fill-opacity: 0.4"></path><path d="M-445.8381643718198,3.643948451242335L-445.8381643718198,13.384443306015006L-448.6014833033291,15.590680144953991z" style="fill:rgb(255,187,187); fill-opacity: 0.4"></path><path d="M-448.60148298538064,15.5906801659071L-445.83816405387137,13.384443326968116L-445.83816405387137,3.6439484721954436z" style="fill:rgb(153,221,255); fill-opacity: 0.4"></path><path d="M-447.97287154961555,43.89508737815145L-503.160630208725,87.9570538865565L-503.160630208725,-106.57571362569647z" style="fill:rgb(238,238,238); fill-opacity: 0.27"></path><path d="M-483.82387562040697,3.528995252936579L-483.82387562040697,13.26949010770925L-448.60148298538064,5.850185311134426z" style="fill:rgb(153,221,255); fill-opacity: 0.4"></path><path d="M-40.028327294214186,-95.73016835445202L-173.3654521707386,-104.51721504543393M-173.3654521707386,-104.51721504543393L-215.7839641954659,-70.65022893145091" style="fill:none;stroke:rgb(0,0,0);stroke-width:1;stroke-linecap:round"></path><path d="M-372.428207845448,11.82480792013204L-261.31392896152715,19.147347366606162L-369.6648889139388,9.618571081193057zM-483.82387562040697,13.26949010770925L-448.60148298538064,15.5906801659071L-448.60148298538064,5.850185311134426z" style="fill:rgb(153,221,255); fill-opacity: 0.4"></path><path d="M-40.028327294214186,-95.73016835445202L-40.028327294214186,53.79194920231704M-40.028327294214186,53.79194920231704L-82.44683931894147,87.65893531630005" style="fill:none;stroke:rgb(0,0,0);stroke-width:1;stroke-linecap:round"></path><path d="M-445.8381643718198,3.643948451242335L-448.6014833033291,15.590680144953991L-448.6014833033291,5.850185290181318z" style="fill:rgb(255,187,187); fill-opacity: 0.4"></path><path d="M-448.60148298538064,5.850185311134426L-448.60148298538064,15.5906801659071L-445.83816405387137,3.6439484721954436zM-372.428207845448,11.82480792013204L-372.428207845448,21.565302774904715L-261.31392896152715,19.147347366606162z" style="fill:rgb(153,221,255); fill-opacity: 0.4"></path><path d="M-445.8381643718198,13.384443306015006L-445.8381643718198,3.643948451242335L-379.8921378457808,14.054274529192945z" style="fill:rgb(255,187,187); fill-opacity: 0.4"></path><path d="M-258.55061003001794,16.941110527667178L-258.55061003001794,26.68160538243985L-369.6648889139388,9.618571081193057z" style="fill:rgb(153,221,255); fill-opacity: 0.4"></path><path d="M-448.60148298538064,5.850185311134421L-448.60148298538064,15.590680165907093M-448.6014596298862,15.590680591533008L-448.6014596298862,5.850185736760335M-448.6014596298862,15.590680591533008L-379.8921390720072,14.054273714476233" style="fill:none;stroke:rgb(0,0,0);stroke-width:1;stroke-linecap:round"></path><path d="M-448.6014833033291,15.590680144953991L-445.8381643718198,13.384443306015006L-379.8921378457808,14.054274529192945z" style="fill:rgb(255,187,187); fill-opacity: 0.4"></path><path d="M-448.6014596298862,5.850185736760335L-379.8921390720072,14.054273714476233" style="fill:none;stroke:rgb(0,0,0);stroke-width:1;stroke-linecap:round"></path><path d="M-445.8381643718198,3.643948451242335L-448.6014833033291,5.850185290181318L-379.8921378457808,14.054274529192945z" style="fill:rgb(255,187,187); fill-opacity: 0.4"></path><path d="M-261.31392896152715,19.147347366606162L-258.55061003001794,16.941110527667178L-369.6648889139388,9.618571081193057zM-261.31392896152715,28.887842221378833L-372.428207845448,21.565302774904715L-258.55061003001794,26.68160538243985z" style="fill:rgb(153,221,255); fill-opacity: 0.4"></path><path d="M-448.6014833033291,5.850185290181318L-448.6014833033291,15.590680144953991L-379.8921378457808,14.054274529192945z" style="fill:rgb(255,187,187); fill-opacity: 0.4"></path><path d="M-372.428207845448,21.565302774904715L-261.31392896152715,28.887842221378833L-261.31392896152715,19.147347366606162z" style="fill:rgb(153,221,255); fill-opacity: 0.4"></path><path d="M-258.5506218105526,16.941110524809705L-258.5506218105526,26.681605379582376M-258.5506218105526,26.681605379582376L-261.3139406322574,28.887842130853382M-258.5506218105526,26.681605379582376L-193.06042713680267,18.056024456271626M-258.55061003001794,16.941110527667174L-258.55061003001794,26.681605382439848M-258.55061003001794,26.681605382439848L-261.31392896152715,28.887842221378833" style="fill:none;stroke:rgb(0,0,0);stroke-width:1;stroke-linecap:round"></path><path d="M-40.02832729421418,-95.730168354452L-40.02832729421418,53.791949202317035L-173.3654521707386,-104.51721504543391z" style="fill:rgb(238,238,238); fill-opacity: 0.27"></path><path d="M-258.5506218105526,16.941110524809705L-261.3139406322574,19.147347276080712M-258.5506218105526,16.941110524809705L-193.06042713680267,18.056024456271626M-258.55061003001794,16.941110527667174L-261.31392896152715,19.14734736660616" style="fill:none;stroke:rgb(0,0,0);stroke-width:1;stroke-linecap:round"></path><path d="M-289.49627469737277,-92.49502402169136L-234.30851603826318,-136.55699053009639L-345.42279492218404,-143.87952997657052z" style="fill:rgb(238,238,238); fill-opacity: 0.27"></path><path d="M-258.550611711458,16.941110416858635L-258.550611711458,26.68160527163131L-261.3139306429672,28.887842110570293z" style="fill:rgb(255,187,187); fill-opacity: 0.4"></path><path d="M-261.31392896152715,28.887842221378833L-258.55061003001794,26.68160538243985L-258.55061003001794,16.941110527667178z" style="fill:rgb(153,221,255); fill-opacity: 0.4"></path><path d="M-258.550611711458,16.941110416858635L-261.3139306429672,28.887842110570293L-261.3139306429672,19.14734725579762z" style="fill:rgb(255,187,187); fill-opacity: 0.4"></path><path d="M-261.31392896152715,19.147347366606162L-261.31392896152715,28.887842221378833L-258.55061003001794,16.941110527667178z" style="fill:rgb(153,221,255); fill-opacity: 0.4"></path><path d="M-261.3139406322574,28.887842130853382L-261.3139406322574,19.147347276080712M-261.3139406322574,28.887842130853382L-193.06042713680267,18.056024456271626M-261.31392896152715,19.14734736660616L-261.31392896152715,28.887842221378833" style="fill:none;stroke:rgb(0,0,0);stroke-width:1;stroke-linecap:round"></path><path d="M-258.550611711458,26.68160527163131L-258.550611711458,16.941110416858635L-193.06042938939268,18.05602504596667z" style="fill:rgb(255,187,187); fill-opacity: 0.4"></path><path d="M-467.93823757369876,-104.25452356749862L-467.93823757369876,90.27824394475434L-412.75047891458917,-148.31649007590366z" style="fill:rgb(238,238,238); fill-opacity: 0.27"></path><path d="M-261.3139406322574,19.147347276080712L-193.06042713680267,18.056024456271626" style="fill:none;stroke:rgb(0,0,0);stroke-width:1;stroke-linecap:round"></path><path d="M-215.7839641954659,78.87188862531815L-173.3654521707386,45.00490251133514L-40.02832729421418,53.791949202317035z" style="fill:rgb(238,238,238); fill-opacity: 0.27"></path><path d="M-261.3139306429672,28.887842110570293L-258.550611711458,26.68160527163131L-193.06042938939268,18.05602504596667zM-258.550611711458,16.941110416858635L-261.3139306429672,19.14734725579762L-193.06042938939268,18.05602504596667z" style="fill:rgb(255,187,187); fill-opacity: 0.4"></path><path d="M-345.42279492218404,50.653237535682436L-400.61055358129363,94.71520404408747L-400.61055358129363,-99.81756346816547z" style="fill:rgb(238,238,238); fill-opacity: 0.27"></path><path d="M-261.3139306429672,19.14734725579762L-261.3139306429672,28.887842110570293L-193.06042938939268,18.05602504596667z" style="fill:rgb(255,187,187); fill-opacity: 0.4"></path><path d="M-54.06297309891449,-14.134687982034324L-187.40009797543888,-22.921734673016218M-187.40009797543888,-32.662229527788895L-187.40009797543888,-22.921734673016218M-187.40009797543888,-22.921734673016218L-190.16341690694813,-20.715497834077237" style="fill:none;stroke:rgb(0,0,0);stroke-width:1;stroke-linecap:round"></path><path d="M-503.160630208725,-106.57571362569647L-467.93823757369876,-104.25452356749862L-447.97287154961555,-150.63768013410152z" style="fill:rgb(238,238,238); fill-opacity: 0.27"></path><path d="M-54.06297309891449,-23.875182836806996L-187.40009797543888,-32.662229527788895M-187.40009797543888,-32.662229527788895L-190.16341690694813,-30.45599268884991" style="fill:none;stroke:rgb(0,0,0);stroke-width:1;stroke-linecap:round"></path><path d="M-289.49627469737277,102.0377434905616L-400.61055358129363,94.71520404408747L-234.30851603826318,57.97577698215656z" style="fill:rgb(238,238,238); fill-opacity: 0.27"></path><path d="M-187.40009797543888,-32.662229527788895L-187.40009797543888,-22.921734673016218L-190.16341690694813,-30.45599268884991z" style="fill:rgb(153,221,255); fill-opacity: 0.4"></path><path d="M-173.3654521707386,-104.51721504543391L-173.3654521707386,45.00490251133514L-215.7839641954659,-70.6502289314509z" style="fill:rgb(238,238,238); fill-opacity: 0.27"></path><path d="M-40.028327294214186,-95.73016835445202L-82.44683931894147,-61.863182240469015" style="fill:none;stroke:rgb(0,0,0);stroke-width:1;stroke-linecap:round"></path><path d="M-187.40009797543888,-22.921734673016218L-190.16341690694813,-20.715497834077237L-190.16341690694813,-30.45599268884991z" style="fill:rgb(153,221,255); fill-opacity: 0.4"></path><path d="M-190.16341690694813,-30.45599268884991L-190.16341690694813,-20.715497834077237M-190.16341690694813,-20.715497834077237L-56.82629203042373,-11.92845114309534M-190.16341690694813,-30.45599268884991L-56.82629203042373,-21.668945997868015" style="fill:none;stroke:rgb(0,0,0);stroke-width:1;stroke-linecap:round"></path><path d="M-54.062973098914476,-14.134687982034329L-187.40009797543888,-22.921734673016218L-187.40009797543888,-32.662229527788895z" style="fill:rgb(153,221,255); fill-opacity: 0.4"></path><path d="M-503.16063020872514,-106.57571362569648L-503.16063020872514,87.95705388655648M-503.16063020872514,87.95705388655648L-467.93823757369876,90.27824394475434" style="fill:none;stroke:rgb(0,0,0);stroke-width:1;stroke-linecap:round"></path><path d="M-190.16341690694813,-20.715497834077237L-187.40009797543888,-22.921734673016218L-54.062973098914476,-14.134687982034329z" style="fill:rgb(153,221,255); fill-opacity: 0.4"></path><path d="M176.47472442602665,51.07263446059306L20.914741326672942,40.821079719119574M20.914741326672942,-63.69040026784527L20.914741326672942,40.821079719119574M20.914741326672942,40.821079719119574L-8.734527577413807,64.49308824405581" style="fill:none;stroke:rgb(0,0,0);stroke-width:1;stroke-linecap:round"></path><path d="M-190.16341690694813,-30.45599268884991L-56.82629203042371,-21.668945997868015L-187.40009797543888,-32.662229527788895zM-190.16341690694813,-30.45599268884991L-190.16341690694813,-20.715497834077237L-56.82629203042371,-21.668945997868015z" style="fill:rgb(153,221,255); fill-opacity: 0.4"></path><path d="M-467.93823757369876,-104.25452356749862L-467.93823757369876,90.27824394475434" style="fill:none;stroke:rgb(0,0,0);stroke-width:1;stroke-linecap:round"></path><path d="M-54.062973098914476,-23.875182836806996L-54.062973098914476,-14.134687982034329L-187.40009797543888,-32.662229527788895zM-56.82629203042371,-21.668945997868015L-54.062973098914476,-23.875182836806996L-187.40009797543888,-32.662229527788895z" style="fill:rgb(153,221,255); fill-opacity: 0.4"></path><path d="M-82.44683931894147,87.65893531630005L-40.02832729421418,53.791949202317035L-40.02832729421418,-95.730168354452z" style="fill:rgb(238,238,238); fill-opacity: 0.27"></path><path d="M-56.82629203042371,-11.928451143095344L-190.16341690694813,-20.715497834077237L-54.062973098914476,-14.134687982034329zM-190.16341690694813,-20.715497834077237L-56.82629203042371,-11.928451143095344L-56.82629203042371,-21.668945997868015z" style="fill:rgb(153,221,255); fill-opacity: 0.4"></path><path d="M-503.160630208725,87.9570538865565L-467.93823757369876,90.27824394475434L-467.93823757369876,-104.25452356749862z" style="fill:rgb(238,238,238); fill-opacity: 0.27"></path><path d="M-54.06297309891449,-23.875182836806996L-54.06297309891449,-14.134687982034324M-54.06297309891449,-14.134687982034324L-56.82629203042373,-11.92845114309534M-54.062967437031176,-23.87518303214531L-54.062967437031176,-14.134687790320148M-54.062967437031176,-14.134687790320148L-56.82628636854041,-11.928450951381166M-54.062967437031176,-14.134687790320148L10.139204403938184,-9.29071458498898" style="fill:none;stroke:rgb(0,0,0);stroke-width:1;stroke-linecap:round"></path><path d="M-400.61055358129363,-99.81756346816547L-289.49627469737277,-92.49502402169136L-345.42279492218404,-143.87952997657052zM176.47472442602665,51.07263446059305L20.91474132667295,40.821079719119574L20.91474132667295,-63.69040026784527z" style="fill:rgb(238,238,238); fill-opacity: 0.27"></path><path d="M-54.06297309891449,-23.875182836806996L-56.82629203042373,-21.668945997868015M-54.062967437031176,-23.87518303214531L-56.82628636854041,-21.668946193206327M-54.062967437031176,-23.87518303214531L10.139204403938184,-9.29071458498898" style="fill:none;stroke:rgb(0,0,0);stroke-width:1;stroke-linecap:round"></path><path d="M-56.82629203042371,-11.928451143095344L-54.062973098914476,-14.134687982034329L-54.062973098914476,-23.875182836806996z" style="fill:rgb(153,221,255); fill-opacity: 0.4"></path><path d="M-54.06297022455229,-23.875182647383724L-54.06297022455229,-14.134687792611055L-56.82628915606152,-11.928450953672073z" style="fill:rgb(255,187,187); fill-opacity: 0.4"></path><path d="M-173.3654521707386,45.00490251133514L-215.7839641954659,78.87188862531815L-215.7839641954659,-70.6502289314509z" style="fill:rgb(238,238,238); fill-opacity: 0.27"></path><path d="M176.47472442602665,-53.43884552637181L20.914741326672942,-63.69040026784527M20.914741326672942,-63.69040026784527L-8.734527577413807,-40.01839174290907" style="fill:none;stroke:rgb(0,0,0);stroke-width:1;stroke-linecap:round"></path><path d="M-82.44683931894147,-61.863182240469L-40.02832729421418,-95.730168354452L-173.3654521707386,-104.51721504543391zM-289.49627469737277,-92.49502402169136L-289.49627469737277,102.0377434905616L-234.30851603826318,-136.55699053009639z" style="fill:rgb(238,238,238); fill-opacity: 0.27"></path><path d="M-400.6105535812936,-99.81756346816549L-400.6105535812936,94.71520404408746M-400.6105535812936,94.71520404408746L-289.4962746973727,102.0377434905616" style="fill:none;stroke:rgb(0,0,0);stroke-width:1;stroke-linecap:round"></path><path d="M-56.82629203042371,-21.668945997868015L-56.82629203042371,-11.928451143095344L-54.062973098914476,-23.875182836806996z" style="fill:rgb(153,221,255); fill-opacity: 0.4"></path><path d="M-54.06297022455229,-23.875182647383724L-56.82628915606152,-11.928450953672073L-56.82628915606152,-21.668945808444743z" style="fill:rgb(255,187,187); fill-opacity: 0.4"></path><path d="M-56.82629203042373,-21.668945997868015L-56.82629203042373,-11.92845114309534M-56.82628636854041,-11.928450951381166L-56.82628636854041,-21.668946193206327M-56.82628636854041,-11.928450951381166L10.139204403938184,-9.29071458498898" style="fill:none;stroke:rgb(0,0,0);stroke-width:1;stroke-linecap:round"></path><path d="M-54.06297022455229,-14.134687792611055L-54.06297022455229,-23.875182647383724L10.139204364768274,-9.290714301809658z" style="fill:rgb(255,187,187); fill-opacity: 0.4"></path><path d="M-56.82628636854041,-21.668946193206327L10.139204403938184,-9.29071458498898" style="fill:none;stroke:rgb(0,0,0);stroke-width:1;stroke-linecap:round"></path><path d="M-503.160630208725,-106.57571362569647L-503.160630208725,87.9570538865565L-467.93823757369876,-104.25452356749862z" style="fill:rgb(238,238,238); fill-opacity: 0.27"></path><path d="M-56.82628915606152,-11.928450953672073L-54.06297022455229,-14.134687792611055L10.139204364768274,-9.290714301809658zM-54.06297022455229,-23.875182647383724L-56.82628915606152,-21.668945808444743L10.139204364768274,-9.290714301809658zM-56.82628915606152,-21.668945808444743L-56.82628915606152,-11.928450953672073L10.139204364768274,-9.290714301809658z" style="fill:rgb(255,187,187); fill-opacity: 0.4"></path><path d="M-82.44683931894147,87.65893531630005L-215.7839641954659,78.87188862531815L-40.02832729421418,53.791949202317035z" style="fill:rgb(238,238,238); fill-opacity: 0.27"></path><path d="M176.47472442602665,-53.43884552637181L176.47472442602665,51.07263446059306M176.47472442602665,51.07263446059306L146.82545552193992,74.74464298552928M-503.16063020872514,-106.57571362569648L-467.93823757369876,-104.25452356749862M166.7355294370184,6.811973594733595L11.17554633766467,-3.439581146739888M11.17554633766467,-13.180076001512562L11.17554633766467,-3.439581146739888M11.17554633766467,-3.439581146739888L8.412227406155433,-1.2333443078009048" style="fill:none;stroke:rgb(0,0,0);stroke-width:1;stroke-linecap:round"></path><path d="M176.47472442602665,-53.43884552637181L176.47472442602665,51.07263446059305L20.91474132667295,-63.69040026784527z" style="fill:rgb(238,238,238); fill-opacity: 0.27"></path><path d="M166.7355294370184,-2.928521260039079L11.17554633766467,-13.180076001512562M11.17554633766467,-13.180076001512562L8.412227406155433,-10.973839162573578" style="fill:none;stroke:rgb(0,0,0);stroke-width:1;stroke-linecap:round"></path><path d="M-8.734527577413788,64.49308824405581L20.91474132667295,40.821079719119574L176.47472442602665,51.07263446059305z" style="fill:rgb(238,238,238); fill-opacity: 0.27"></path><path d="M380.331851142354,73.00055904902167L246.99472626582966,64.21351235803978M246.99472626582966,-62.80329260666703L246.99472626582966,64.21351235803978M246.99472626582966,64.21351235803978L210.96083404455177,92.983011080187" style="fill:none;stroke:rgb(0,0,0);stroke-width:1;stroke-linecap:round"></path><path d="M20.91474132667295,-63.69040026784527L20.91474132667295,40.821079719119574L-8.734527577413788,-40.01839174290907z" style="fill:rgb(238,238,238); fill-opacity: 0.27"></path><path d="M11.175546337664677,-13.180076001512562L11.175546337664677,-3.439581146739888L8.412227406155445,-10.973839162573578zM11.175546337664677,-3.439581146739888L8.412227406155445,-1.2333443078009056L8.412227406155445,-10.973839162573578z" style="fill:rgb(153,221,255); fill-opacity: 0.4"></path><path d="M8.412227406155433,-10.973839162573578L8.412227406155433,-1.2333443078009048M8.412227406155433,-1.2333443078009048L163.97221050550917,9.018210433672579M8.412227406155433,-10.973839162573578L163.97221050550917,-0.7222844211000959M-289.4962746973727,-92.49502402169136L-289.4962746973727,102.0377434905616" style="fill:none;stroke:rgb(0,0,0);stroke-width:1;stroke-linecap:round"></path><path d="M-215.7839641954659,-70.6502289314509L-82.44683931894147,-61.863182240469L-173.3654521707386,-104.51721504543391z" style="fill:rgb(238,238,238); fill-opacity: 0.27"></path><path d="M166.73552943701839,6.811973594733592L11.175546337664677,-3.439581146739888L11.175546337664677,-13.180076001512562z" style="fill:rgb(153,221,255); fill-opacity: 0.4"></path><path d="M-215.7839641954659,-70.65022893145091L-215.7839641954659,78.87188862531814M-215.7839641954659,78.87188862531814L-82.44683931894147,87.65893531630005" style="fill:none;stroke:rgb(0,0,0);stroke-width:1;stroke-linecap:round"></path><path d="M8.412227406155445,-1.2333443078009056L11.175546337664677,-3.439581146739888L166.73552943701839,6.811973594733592z" style="fill:rgb(153,221,255); fill-opacity: 0.4"></path><path d="M-400.61055358129363,94.71520404408747L-289.49627469737277,102.0377434905616L-289.49627469737277,-92.49502402169136zM-400.61055358129363,-99.81756346816547L-400.61055358129363,94.71520404408747L-289.49627469737277,-92.49502402169136z" style="fill:rgb(238,238,238); fill-opacity: 0.27"></path><path d="M176.47472442602665,-53.43884552637181L146.82545552193992,-29.766837001435583" style="fill:none;stroke:rgb(0,0,0);stroke-width:1;stroke-linecap:round"></path><path d="M8.412227406155445,-10.973839162573578L163.97221050550914,-0.7222844211000978L11.175546337664677,-13.180076001512562zM8.412227406155445,-10.973839162573578L8.412227406155445,-1.2333443078009056L163.97221050550914,-0.7222844211000978z" style="fill:rgb(153,221,255); fill-opacity: 0.4"></path><path d="M380.331851142354,73.00055904902167L246.99472626582966,64.21351235803978L246.99472626582966,-62.80329260666703z" style="fill:rgb(238,238,238); fill-opacity: 0.27"></path><path d="M-400.6105535812936,-99.81756346816549L-289.4962746973727,-92.49502402169136" style="fill:none;stroke:rgb(0,0,0);stroke-width:1;stroke-linecap:round"></path><path d="M-82.44683931894147,-61.863182240469L-82.44683931894147,87.65893531630005L-40.02832729421418,-95.730168354452zM20.91474132667295,40.821079719119574L-8.734527577413788,64.49308824405581L-8.734527577413788,-40.01839174290907z" style="fill:rgb(238,238,238); fill-opacity: 0.27"></path><path d="M166.73552943701839,-2.9285212600390804L166.73552943701839,6.811973594733592L11.175546337664677,-13.180076001512562z" style="fill:rgb(153,221,255); fill-opacity: 0.4"></path><path d="M380.331851142354,-54.01624591568513L246.99472626582966,-62.80329260666703M246.99472626582966,-62.80329260666703L210.96083404455177,-34.03379388451981" style="fill:none;stroke:rgb(0,0,0);stroke-width:1;stroke-linecap:round"></path><path d="M163.97221050550914,-0.7222844211000978L166.73552943701839,-2.9285212600390804L11.175546337664677,-13.180076001512562zM163.97221050550914,9.018210433672575L8.412227406155445,-1.2333443078009056L166.73552943701839,6.811973594733592zM8.412227406155445,-1.2333443078009056L163.97221050550914,9.018210433672575L163.97221050550914,-0.7222844211000978z" style="fill:rgb(153,221,255); fill-opacity: 0.4"></path><path d="M146.82545552193992,74.74464298552928L176.47472442602665,51.07263446059305L176.47472442602665,-53.43884552637181z" style="fill:rgb(238,238,238); fill-opacity: 0.27"></path><path d="M380.331851142354,-54.01624591568513L380.331851142354,73.00055904902167M380.331851142354,73.00055904902167L344.29795892107614,101.7700577711689" style="fill:none;stroke:rgb(0,0,0);stroke-width:1;stroke-linecap:round"></path><path d="M146.82545552193992,-29.76683700143559L176.47472442602665,-53.43884552637181L20.91474132667295,-63.69040026784527z" style="fill:rgb(238,238,238); fill-opacity: 0.27"></path><path d="M166.7355294370184,-2.928521260039079L166.7355294370184,6.811973594733595M166.7355294370184,6.811973594733595L163.97221050550917,9.018210433672579M166.73553664254456,-2.928520458095096L166.73553664254456,6.811974227342113M166.73553664254456,6.811974227342113L163.97221793064418,9.018210890945143M166.73553664254456,6.811974227342113L233.47912895537618,5.843500106421767M166.7355294370184,-2.928521260039079L163.97221050550917,-0.7222844211000959M166.73553664254456,-2.928520458095096L163.97221793064418,-0.7222837944920638M166.73553664254456,-2.928520458095096L233.47912895537618,5.843500106421767M561.9661271127153,93.46397140531855L450.8518482287945,86.14143195884442M450.8518482287945,-63.38068559792463L450.8518482287945,86.14143195884442M450.8518482287945,86.14143195884442L408.43333620406725,120.00841807282742" style="fill:none;stroke:rgb(0,0,0);stroke-width:1;stroke-linecap:round"></path><path d="M163.97221050550914,9.018210433672575L166.73552943701839,6.811973594733592L166.73552943701839,-2.9285212600390804z" style="fill:rgb(153,221,255); fill-opacity: 0.4"></path><path d="M166.73553075207,-2.9285211733758953L166.73553075207,6.811973681396777L163.97221182056074,9.01821052033576z" style="fill:rgb(255,187,187); fill-opacity: 0.4"></path><path d="M380.331851142354,-54.01624591568514L380.331851142354,73.00055904902167L246.99472626582966,-62.80329260666703z" style="fill:rgb(238,238,238); fill-opacity: 0.27"></path><path d="M-215.7839641954659,-70.65022893145091L-82.44683931894147,-61.863182240469015" style="fill:none;stroke:rgb(0,0,0);stroke-width:1;stroke-linecap:round"></path><path d="M146.82545552193992,74.74464298552928L-8.734527577413788,64.49308824405581L176.47472442602665,51.07263446059305z" style="fill:rgb(238,238,238); fill-opacity: 0.27"></path><path d="M163.97221050550914,-0.7222844211000978L163.97221050550914,9.018210433672575L166.73552943701839,-2.9285212600390804z" style="fill:rgb(153,221,255); fill-opacity: 0.4"></path><path d="M166.73553075207,-2.9285211733758953L163.97221182056074,9.01821052033576L163.97221182056074,-0.7222843344369124z" style="fill:rgb(255,187,187); fill-opacity: 0.4"></path><path d="M-215.7839641954659,-70.6502289314509L-215.7839641954659,78.87188862531815L-82.44683931894147,-61.863182240469z" style="fill:rgb(238,238,238); fill-opacity: 0.27"></path><path d="M166.73553075207,6.811973681396777L166.73553075207,-2.9285211733758953L233.47912288865388,5.843499618654344z" style="fill:rgb(255,187,187); fill-opacity: 0.4"></path><path d="M-215.7839641954659,78.87188862531815L-82.44683931894147,87.65893531630005L-82.44683931894147,-61.863182240469z" style="fill:rgb(238,238,238); fill-opacity: 0.27"></path><path d="M-82.44683931894147,-61.863182240469015L-82.44683931894147,87.65893531630005M163.97221050550917,-0.7222844211000959L163.97221050550917,9.018210433672579M163.97221793064418,9.018210890945143L163.97221793064418,-0.7222837944920638M163.97221793064418,9.018210890945143L233.47912895537618,5.843500106421767" style="fill:none;stroke:rgb(0,0,0);stroke-width:1;stroke-linecap:round"></path><path d="M163.97221182056074,9.01821052033576L166.73553075207,6.811973681396777L233.47912288865388,5.843499618654344z" style="fill:rgb(255,187,187); fill-opacity: 0.4"></path><path d="M163.97221793064418,-0.7222837944920638L233.47912895537618,5.843500106421767M-8.734527577413807,-40.01839174290907L-8.734527577413807,64.49308824405581M-8.734527577413807,64.49308824405581L146.82545552193992,74.74464298552928" style="fill:none;stroke:rgb(0,0,0);stroke-width:1;stroke-linecap:round"></path><path d="M166.73553075207,-2.9285211733758953L163.97221182056074,-0.7222843344369124L233.47912288865388,5.843499618654344z" style="fill:rgb(255,187,187); fill-opacity: 0.4"></path><path d="M210.96083404455175,92.983011080187L246.99472626582966,64.21351235803978L380.331851142354,73.00055904902167z" style="fill:rgb(238,238,238); fill-opacity: 0.27"></path><path d="M163.97221182056074,-0.7222843344369124L163.97221182056074,9.01821052033576L233.47912288865388,5.843499618654344z" style="fill:rgb(255,187,187); fill-opacity: 0.4"></path><path d="M-8.734527577413788,-40.01839174290907L146.82545552193992,-29.76683700143559L20.91474132667295,-63.69040026784527zM246.99472626582966,-62.80329260666703L246.99472626582966,64.21351235803978L210.96083404455175,-34.03379388451982z" style="fill:rgb(238,238,238); fill-opacity: 0.27"></path><path d="M366.8051218971311,18.209325122815898L233.46799702060667,9.422278431834002M233.46799702060667,-0.3182164229386713L233.46799702060667,9.422278431834002M233.46799702060667,9.422278431834002L230.70467808909746,11.628515270772985M366.8051218971311,8.468830268043224L233.46799702060667,-0.3182164229386713M233.46799702060667,-0.3182164229386713L230.70467808909746,1.8880204160003118" style="fill:none;stroke:rgb(0,0,0);stroke-width:1;stroke-linecap:round"></path><path d="M561.9661271127153,93.46397140531855L450.85184822879444,86.14143195884442L450.85184822879444,-63.38068559792463z" style="fill:rgb(238,238,238); fill-opacity: 0.27"></path><path d="M233.46799702060667,-0.3182164229386674L233.46799702060667,9.422278431834004L230.70467808909746,1.8880204160003142z" style="fill:rgb(153,221,255); fill-opacity: 0.4"></path><path d="M380.331851142354,-54.01624591568513L344.29795892107614,-25.246747193537914" style="fill:none;stroke:rgb(0,0,0);stroke-width:1;stroke-linecap:round"></path><path d="M233.46799702060667,9.422278431834004L230.70467808909746,11.628515270772985L230.70467808909746,1.8880204160003142z" style="fill:rgb(153,221,255); fill-opacity: 0.4"></path><path d="M230.70467808909746,1.8880204160003118L230.70467808909746,11.628515270772985M230.70467808909746,11.628515270772985L364.04180296562186,20.415561961754882M230.70467808909746,1.8880204160003118L364.04180296562186,10.675067106982207M561.9661271127153,-56.058146151450515L561.9661271127153,93.46397140531855M561.9661271127153,93.46397140531855L519.5476150879881,127.33095751930155" style="fill:none;stroke:rgb(0,0,0);stroke-width:1;stroke-linecap:round"></path><path d="M366.80512189713113,18.2093251228159L233.46799702060667,9.422278431834004L233.46799702060667,-0.3182164229386674z" style="fill:rgb(153,221,255); fill-opacity: 0.4"></path><path d="M-8.734527577413807,-40.01839174290907L146.82545552193992,-29.766837001435583" style="fill:none;stroke:rgb(0,0,0);stroke-width:1;stroke-linecap:round"></path><path d="M230.70467808909746,11.628515270772985L233.46799702060667,9.422278431834004L366.80512189713113,18.2093251228159z" style="fill:rgb(153,221,255); fill-opacity: 0.4"></path><path d="M561.9661271127153,-56.058146151450515L450.8518482287945,-63.38068559792463M450.8518482287945,-63.38068559792463L408.43333620406725,-29.513699483941636" style="fill:none;stroke:rgb(0,0,0);stroke-width:1;stroke-linecap:round"></path><path d="M146.82545552193992,-29.76683700143559L146.82545552193992,74.74464298552928L176.47472442602665,-53.43884552637181z" style="fill:rgb(238,238,238); fill-opacity: 0.27"></path><path d="M721.3775436206265,112.46288030380433L632.486122959535,106.60484890782179M632.486122959535,-65.4225936266892L632.486122959535,106.60484890782179M632.486122959535,106.60484890782179L583.6829876176165,145.56932521901578" style="fill:none;stroke:rgb(0,0,0);stroke-width:1;stroke-linecap:round"></path><path d="M230.70467808909746,1.8880204160003142L364.04180296562186,10.675067106982208L233.46799702060667,-0.3182164229386674z" style="fill:rgb(153,221,255); fill-opacity: 0.4"></path><path d="M-8.734527577413788,-40.01839174290907L-8.734527577413788,64.49308824405581L146.82545552193992,-29.76683700143559z" style="fill:rgb(238,238,238); fill-opacity: 0.27"></path><path d="M230.70467808909746,1.8880204160003142L230.70467808909746,11.628515270772985L364.04180296562186,10.675067106982208z" style="fill:rgb(153,221,255); fill-opacity: 0.4"></path><path d="M561.9661271127153,-56.05814615145052L561.9661271127153,93.46397140531855L450.85184822879444,-63.38068559792463z" style="fill:rgb(238,238,238); fill-opacity: 0.27"></path><path d="M366.80512189713113,8.468830268043227L366.80512189713113,18.2093251228159L233.46799702060667,-0.3182164229386674z" style="fill:rgb(153,221,255); fill-opacity: 0.4"></path><path d="M344.29795892107614,101.7700577711689L380.331851142354,73.00055904902167L380.331851142354,-54.01624591568514zM-8.734527577413788,64.49308824405581L146.82545552193992,74.74464298552928L146.82545552193992,-29.76683700143559zM246.99472626582966,64.21351235803978L210.96083404455175,92.983011080187L210.96083404455175,-34.03379388451982z" style="fill:rgb(238,238,238); fill-opacity: 0.27"></path><path d="M364.04180296562186,10.675067106982208L366.80512189713113,8.468830268043227L233.46799702060667,-0.3182164229386674zM364.04180296562186,20.415561961754882L230.70467808909746,11.628515270772985L366.80512189713113,18.2093251228159z" style="fill:rgb(153,221,255); fill-opacity: 0.4"></path><path d="M146.82545552193992,-29.766837001435583L146.82545552193992,74.74464298552928" style="fill:none;stroke:rgb(0,0,0);stroke-width:1;stroke-linecap:round"></path><path d="M344.29795892107614,-25.246747193537917L380.331851142354,-54.01624591568514L246.99472626582966,-62.80329260666703z" style="fill:rgb(238,238,238); fill-opacity: 0.27"></path><path d="M230.70467808909746,11.628515270772985L364.04180296562186,20.415561961754882L364.04180296562186,10.675067106982208z" style="fill:rgb(153,221,255); fill-opacity: 0.4"></path><path d="M366.8051218971311,8.468830268043224L366.8051218971311,18.209325122815898M366.8051218971311,18.209325122815898L364.04180296562186,20.415561961754882M366.8051249334252,8.468830374830663L366.8051249334252,18.209325423129584M366.8051249334252,18.209325423129584L364.0418062215248,20.415562086732614M366.8051249334252,18.209325423129584L433.3019377217976,17.207478856876897M366.8051218971311,8.468830268043224L364.04180296562186,10.675067106982207M366.8051249334252,8.468830374830663L364.0418062215248,10.675067038433694M366.8051249334252,8.468830374830663L433.3019377217976,17.207478856876897" style="fill:none;stroke:rgb(0,0,0);stroke-width:1;stroke-linecap:round"></path><path d="M721.3775436206265,112.46288030380434L632.486122959535,106.6048489078218L632.486122959535,-65.42259362668919zM408.43333620406713,120.00841807282742L450.85184822879444,86.14143195884442L561.9661271127153,93.46397140531855z" style="fill:rgb(238,238,238); fill-opacity: 0.27"></path><path d="M364.04180296562186,20.415561961754882L366.80512189713113,18.2093251228159L366.80512189713113,8.468830268043227z" style="fill:rgb(153,221,255); fill-opacity: 0.4"></path><path d="M366.8051247714933,8.4688304574665L366.8051247714933,18.209325312239176L364.041805839984,20.415562151178154z" style="fill:rgb(255,187,187); fill-opacity: 0.4"></path><path d="M721.3775436206265,-59.56456223070668L721.3775436206265,112.46288030380433M721.3775436206265,112.46288030380433L672.574408278708,151.42735661499833M544.690962690236,91.18149975130844L433.57668380631515,83.85896030483431M433.57668380631515,74.11846545006165L433.57668380631515,83.85896030483431M433.57668380631515,83.85896030483431L430.81336487480587,86.0651971437733" style="fill:none;stroke:rgb(0,0,0);stroke-width:1;stroke-linecap:round"></path><path d="M344.29795892107614,101.7700577711689L210.96083404455175,92.983011080187L380.331851142354,73.00055904902167z" style="fill:rgb(238,238,238); fill-opacity: 0.27"></path><path d="M364.04180296562186,10.675067106982208L364.04180296562186,20.415561961754882L366.80512189713113,8.468830268043227z" style="fill:rgb(153,221,255); fill-opacity: 0.4"></path><path d="M366.8051247714933,8.4688304574665L364.041805839984,20.415562151178154L364.041805839984,10.675067296405482zM366.8051247714933,18.209325312239176L366.8051247714933,8.4688304574665L433.301937372715,17.207478608907184z" style="fill:rgb(255,187,187); fill-opacity: 0.4"></path><path d="M544.690962690236,81.44100489653576L433.57668380631515,74.11846545006165M433.57668380631515,74.11846545006165L430.81336487480587,76.32470228900063M364.04180296562186,10.675067106982207L364.04180296562186,20.415561961754882M364.0418062215248,20.415562086732614L364.0418062215248,10.675067038433694M364.0418062215248,20.415562086732614L433.3019377217976,17.207478856876897M561.9661271127153,-56.058146151450515L519.5476150879881,-22.191160037467508M858.5661050243294,129.9972813573187L791.8975425860672,125.60375801182776M791.8975425860672,-68.92900950042518L791.8975425860672,125.60375801182776M791.8975425860672,125.60375801182776L736.7097839269576,169.6657245202328" style="fill:none;stroke:rgb(0,0,0);stroke-width:1;stroke-linecap:round"></path><path d="M364.041805839984,20.415562151178154L366.8051247714933,18.209325312239176L433.301937372715,17.207478608907184z" style="fill:rgb(255,187,187); fill-opacity: 0.4"></path><path d="M433.57668380631503,74.11846545006165L433.57668380631503,83.85896030483431L430.81336487480576,76.32470228900063z" style="fill:rgb(153,221,255); fill-opacity: 0.4"></path><path d="M364.0418062215248,10.675067038433694L433.3019377217976,17.207478856876897" style="fill:none;stroke:rgb(0,0,0);stroke-width:1;stroke-linecap:round"></path><path d="M366.8051247714933,8.4688304574665L364.041805839984,10.675067296405482L433.301937372715,17.207478608907184z" style="fill:rgb(255,187,187); fill-opacity: 0.4"></path><path d="M433.57668380631503,83.85896030483431L430.81336487480576,86.0651971437733L430.81336487480576,76.32470228900063z" style="fill:rgb(153,221,255); fill-opacity: 0.4"></path><path d="M364.041805839984,10.675067296405482L364.041805839984,20.415562151178154L433.301937372715,17.207478608907184z" style="fill:rgb(255,187,187); fill-opacity: 0.4"></path><path d="M450.85184822879444,-63.38068559792463L450.85184822879444,86.14143195884442L408.43333620406713,-29.513699483941636z" style="fill:rgb(238,238,238); fill-opacity: 0.27"></path><path d="M430.81336487480587,76.32470228900063L430.81336487480587,86.0651971437733M430.81336487480587,86.0651971437733L541.9276437587267,93.38773659024743" style="fill:none;stroke:rgb(0,0,0);stroke-width:1;stroke-linecap:round"></path><path d="M544.6909626902359,91.18149975130844L433.57668380631503,83.85896030483431L433.57668380631503,74.11846545006165z" style="fill:rgb(153,221,255); fill-opacity: 0.4"></path><path d="M430.81336487480587,76.32470228900063L541.9276437587267,83.64724173547475" style="fill:none;stroke:rgb(0,0,0);stroke-width:1;stroke-linecap:round"></path><path d="M430.81336487480576,86.0651971437733L433.57668380631503,83.85896030483431L544.6909626902359,91.18149975130844z" style="fill:rgb(153,221,255); fill-opacity: 0.4"></path><path d="M721.3775436206265,-59.56456223070668L632.486122959535,-65.4225936266892M632.486122959535,-65.4225936266892L583.6829876176165,-26.4581173154952M210.96083404455177,-34.03379388451981L210.96083404455177,92.983011080187M210.96083404455177,92.983011080187L344.29795892107614,101.7700577711689" style="fill:none;stroke:rgb(0,0,0);stroke-width:1;stroke-linecap:round"></path><path d="M721.3775436206265,-59.56456223070666L721.3775436206265,112.46288030380434L632.486122959535,-65.42259362668919zM210.96083404455175,-34.03379388451982L344.29795892107614,-25.246747193537917L246.99472626582966,-62.80329260666703z" style="fill:rgb(238,238,238); fill-opacity: 0.27"></path><path d="M430.81336487480576,76.32470228900063L541.9276437587266,83.64724173547475L433.57668380631503,74.11846545006165zM430.81336487480576,76.32470228900063L430.81336487480576,86.0651971437733L541.9276437587266,83.64724173547475zM544.6909626902359,81.44100489653576L544.6909626902359,91.18149975130844L433.57668380631503,74.11846545006165z" style="fill:rgb(153,221,255); fill-opacity: 0.4"></path><path d="M858.5661050243294,-64.53548615493425L858.5661050243294,129.9972813573187M858.5661050243294,129.9972813573187L803.3783463652198,174.05924786572373" style="fill:none;stroke:rgb(0,0,0);stroke-width:1;stroke-linecap:round"></path><path d="M858.5661050243293,129.9972813573187L791.8975425860672,125.60375801182776L791.8975425860672,-68.92900950042518z" style="fill:rgb(238,238,238); fill-opacity: 0.27"></path><path d="M541.9276437587266,83.64724173547475L544.6909626902359,81.44100489653576L433.57668380631503,74.11846545006165zM541.9276437587266,93.38773659024743L430.81336487480576,86.0651971437733L544.6909626902359,91.18149975130844z" style="fill:rgb(153,221,255); fill-opacity: 0.4"></path><path d="M519.5476150879881,127.33095751930155L561.9661271127153,93.46397140531855L561.9661271127153,-56.05814615145052z" style="fill:rgb(238,238,238); fill-opacity: 0.27"></path><path d="M430.81336487480576,86.0651971437733L541.9276437587266,93.38773659024743L541.9276437587266,83.64724173547475z" style="fill:rgb(153,221,255); fill-opacity: 0.4"></path><path d="M544.690962690236,81.44100489653576L544.690962690236,91.18149975130844M544.690962690236,91.18149975130844L541.9276437587267,93.38773659024743M544.6909768660912,81.44100716350685L544.6909768660912,91.1814989218596M544.6909768660912,91.1814989218596L541.9276580443864,93.3877356731306M544.6909768660912,91.1814989218596L611.0211827357037,99.64469302542524M544.690962690236,81.44100489653576L541.9276437587267,83.64724173547475M544.6909768660912,81.44100716350685L541.9276580443864,83.64724391477786M544.6909768660912,81.44100716350685L611.0211827357037,99.64469302542524" style="fill:none;stroke:rgb(0,0,0);stroke-width:1;stroke-linecap:round"></path><path d="M344.29795892107614,-25.246747193537917L344.29795892107614,101.7700577711689L380.331851142354,-54.01624591568514z" style="fill:rgb(238,238,238); fill-opacity: 0.27"></path><path d="M544.6909610087957,81.44100478572723L544.6909610087957,91.1814996404999L541.9276420772865,93.38773647943889z" style="fill:rgb(255,187,187); fill-opacity: 0.4"></path><path d="M541.9276437587266,93.38773659024743L544.6909626902359,91.18149975130844L544.6909626902359,81.44100489653576z" style="fill:rgb(153,221,255); fill-opacity: 0.4"></path><path d="M583.6829876176165,145.5693252190158L632.486122959535,106.6048489078218L721.3775436206265,112.46288030380434z" style="fill:rgb(238,238,238); fill-opacity: 0.27"></path><path d="M544.6909610087957,81.44100478572723L541.9276420772865,93.38773647943889L541.9276420772865,83.64724162466621z" style="fill:rgb(255,187,187); fill-opacity: 0.4"></path><path d="M541.9276437587266,83.64724173547475L541.9276437587266,93.38773659024743L544.6909626902359,81.44100489653576z" style="fill:rgb(153,221,255); fill-opacity: 0.4"></path><path d="M544.6909610087957,91.1814996404999L544.6909610087957,81.44100478572723L611.0211668504644,99.64469116234822z" style="fill:rgb(255,187,187); fill-opacity: 0.4"></path><path d="M721.3775436206265,-59.56456223070668L672.574408278708,-20.60008591951267M541.9276437587267,83.64724173547475L541.9276437587267,93.38773659024743M541.9276580443864,93.3877356731306L541.9276580443864,83.64724391477786M541.9276580443864,93.3877356731306L611.0211827357037,99.64469302542524" style="fill:none;stroke:rgb(0,0,0);stroke-width:1;stroke-linecap:round"></path><path d="M541.9276420772865,93.38773647943889L544.6909610087957,91.1814996404999L611.0211668504644,99.64469116234822z" style="fill:rgb(255,187,187); fill-opacity: 0.4"></path><path d="M927.496832595966,134.5398835933893L924.2907523106425,134.32859977286097M924.2907523106425,-60.204167739391984L924.2907523106425,134.32859977286097M924.2907523106425,134.32859977286097L869.1029936515329,178.390566281266" style="fill:none;stroke:rgb(0,0,0);stroke-width:1;stroke-linecap:round"></path><path d="M519.5476150879881,-22.19116003746751L561.9661271127153,-56.05814615145052L450.85184822879444,-63.38068559792463z" style="fill:rgb(238,238,238); fill-opacity: 0.27"></path><path d="M927.496832595966,-59.99288391886364L927.496832595966,134.5398835933893M927.496832595966,134.5398835933893L872.3090739368564,178.60185010179435M541.9276580443864,83.64724391477786L611.0211827357037,99.64469302542524" style="fill:none;stroke:rgb(0,0,0);stroke-width:1;stroke-linecap:round"></path><path d="M544.6909610087957,81.44100478572723L541.9276420772865,83.64724162466621L611.0211668504644,99.64469116234822zM541.9276420772865,83.64724162466621L541.9276420772865,93.38773647943889L611.0211668504644,99.64469116234822z" style="fill:rgb(255,187,187); fill-opacity: 0.4"></path><path d="M450.85184822879444,86.14143195884442L408.43333620406713,120.00841807282742L408.43333620406713,-29.513699483941636z" style="fill:rgb(238,238,238); fill-opacity: 0.27"></path><path d="M210.96083404455177,-34.03379388451981L344.29795892107614,-25.246747193537914" style="fill:none;stroke:rgb(0,0,0);stroke-width:1;stroke-linecap:round"></path><path d="M858.5661050243293,-64.53548615493425L858.5661050243293,129.9972813573187L791.8975425860672,-68.92900950042518zM210.96083404455175,-34.03379388451982L210.96083404455175,92.983011080187L344.29795892107614,-25.246747193537917z" style="fill:rgb(238,238,238); fill-opacity: 0.27"></path><path d="M858.5661050243294,-64.53548615493425L791.8975425860672,-68.92900950042518M791.8975425860672,-68.92900950042518L736.7097839269576,-24.867042992020153" style="fill:none;stroke:rgb(0,0,0);stroke-width:1;stroke-linecap:round"></path><path d="M210.96083404455175,92.983011080187L344.29795892107614,101.7700577711689L344.29795892107614,-25.246747193537917zM519.5476150879881,127.33095751930155L408.43333620406713,120.00841807282742L561.9661271127153,93.46397140531855z" style="fill:rgb(238,238,238); fill-opacity: 0.27"></path><path d="M344.29795892107614,-25.246747193537914L344.29795892107614,101.7700577711689" style="fill:none;stroke:rgb(0,0,0);stroke-width:1;stroke-linecap:round"></path><path d="M632.486122959535,-65.42259362668919L632.486122959535,106.6048489078218L583.6829876176165,-26.458117315495198zM927.496832595966,134.5398835933893L924.2907523106425,134.32859977286097L924.2907523106425,-60.20416773939197zM672.574408278708,151.42735661499836L721.3775436206265,112.46288030380434L721.3775436206265,-59.56456223070666z" style="fill:rgb(238,238,238); fill-opacity: 0.27"></path><path d="M858.5661050243294,-64.53548615493425L803.3783463652198,-20.473519646529216" style="fill:none;stroke:rgb(0,0,0);stroke-width:1;stroke-linecap:round"></path><path d="M927.496832595966,-59.99288391886364L927.496832595966,134.5398835933893L924.2907523106425,-60.20416773939197zM736.7097839269576,169.6657245202328L791.8975425860672,125.60375801182776L858.5661050243293,129.9972813573187zM408.43333620406713,-29.513699483941636L519.5476150879881,-22.19116003746751L450.85184822879444,-63.38068559792463z" style="fill:rgb(238,238,238); fill-opacity: 0.27"></path><path d="M408.43333620406725,-29.513699483941636L408.43333620406725,120.00841807282742M408.43333620406725,120.00841807282742L519.5476150879881,127.33095751930155" style="fill:none;stroke:rgb(0,0,0);stroke-width:1;stroke-linecap:round"></path><path d="M672.574408278708,-20.600085919512658L721.3775436206265,-59.56456223070666L632.486122959535,-65.42259362668919z" style="fill:rgb(238,238,238); fill-opacity: 0.27"></path><path d="M927.496832595966,-59.99288391886364L924.2907523106425,-60.204167739391984M924.2907523106425,-60.204167739391984L869.1029936515329,-16.142201230986938" style="fill:none;stroke:rgb(0,0,0);stroke-width:1;stroke-linecap:round"></path><path d="M519.5476150879881,-22.19116003746751L519.5476150879881,127.33095751930155L561.9661271127153,-56.05814615145052z" style="fill:rgb(238,238,238); fill-opacity: 0.27"></path><path d="M927.496832595966,-59.99288391886364L872.3090739368564,-15.930917410458624" style="fill:none;stroke:rgb(0,0,0);stroke-width:1;stroke-linecap:round"></path><path d="M791.8975425860672,-68.92900950042518L791.8975425860672,125.60375801182776L736.7097839269576,-24.86704299202015zM632.486122959535,106.6048489078218L583.6829876176165,145.5693252190158L583.6829876176165,-26.458117315495198zM803.3783463652197,174.05924786572373L858.5661050243293,129.9972813573187L858.5661050243293,-64.53548615493425zM672.574408278708,151.42735661499836L583.6829876176165,145.5693252190158L721.3775436206265,112.46288030380434zM869.1029936515329,178.39056628126602L924.2907523106425,134.32859977286097L927.496832595966,134.5398835933893z" style="fill:rgb(238,238,238); fill-opacity: 0.27"></path><path d="M519.5476150879881,-22.191160037467508L519.5476150879881,127.33095751930155" style="fill:none;stroke:rgb(0,0,0);stroke-width:1;stroke-linecap:round"></path><path d="M408.43333620406713,120.00841807282742L519.5476150879881,127.33095751930155L519.5476150879881,-22.19116003746751zM408.43333620406713,-29.513699483941636L408.43333620406713,120.00841807282742L519.5476150879881,-22.19116003746751z" style="fill:rgb(238,238,238); fill-opacity: 0.27"></path><path d="M408.43333620406725,-29.513699483941636L519.5476150879881,-22.191160037467508M684.5512925762018,58.3950138081108L595.6598719151103,52.53698241212826M595.6598719151103,42.7964875573556L595.6598719151103,52.53698241212826M595.6598719151103,52.53698241212826L592.896552983601,54.743219251067245" style="fill:none;stroke:rgb(0,0,0);stroke-width:1;stroke-linecap:round"></path><path d="M872.3090739368563,178.60185010179435L927.496832595966,134.5398835933893L927.496832595966,-59.99288391886364z" style="fill:rgb(238,238,238); fill-opacity: 0.27"></path><path d="M684.5512925762018,48.654518953338126L595.6598719151103,42.7964875573556M595.6598719151103,42.7964875573556L592.896552983601,45.00272439629457" style="fill:none;stroke:rgb(0,0,0);stroke-width:1;stroke-linecap:round"></path><path d="M595.6598719151103,42.79648755735559L595.6598719151103,52.53698241212827L592.8965529836012,45.00272439629457z" style="fill:rgb(153,221,255); fill-opacity: 0.4"></path><path d="M803.3783463652197,-20.473519646529212L858.5661050243293,-64.53548615493425L791.8975425860672,-68.92900950042518z" style="fill:rgb(238,238,238); fill-opacity: 0.27"></path><path d="M595.6598719151103,52.53698241212827L592.8965529836012,54.743219251067245L592.8965529836012,45.00272439629457zM684.5512925762018,58.3950138081108L595.6598719151103,52.53698241212827L595.6598719151103,42.79648755735559z" style="fill:rgb(153,221,255); fill-opacity: 0.4"></path><path d="M592.896552983601,45.00272439629457L592.896552983601,54.743219251067245M592.896552983601,54.743219251067245L681.7879736446926,60.601250647049774" style="fill:none;stroke:rgb(0,0,0);stroke-width:1;stroke-linecap:round"></path><path d="M592.8965529836012,54.743219251067245L595.6598719151103,52.53698241212827L684.5512925762018,58.3950138081108z" style="fill:rgb(153,221,255); fill-opacity: 0.4"></path><path d="M592.896552983601,45.00272439629457L681.7879736446926,50.86075579227711" style="fill:none;stroke:rgb(0,0,0);stroke-width:1;stroke-linecap:round"></path><path d="M583.6829876176165,-26.458117315495198L672.574408278708,-20.600085919512658L632.486122959535,-65.42259362668919zM924.2907523106425,-60.20416773939197L924.2907523106425,134.32859977286097L869.1029936515329,-16.14220123098694z" style="fill:rgb(238,238,238); fill-opacity: 0.27"></path><path d="M592.8965529836012,45.00272439629457L681.7879736446927,50.86075579227711L595.6598719151103,42.79648755735559z" style="fill:rgb(153,221,255); fill-opacity: 0.4"></path><path d="M672.574408278708,-20.600085919512658L672.574408278708,151.42735661499836L721.3775436206265,-59.56456223070666z" style="fill:rgb(238,238,238); fill-opacity: 0.27"></path><path d="M684.5512925762018,48.65451895333813L684.5512925762018,58.3950138081108L595.6598719151103,42.79648755735559zM592.8965529836012,45.00272439629457L592.8965529836012,54.743219251067245L681.7879736446927,50.86075579227711z" style="fill:rgb(153,221,255); fill-opacity: 0.4"></path><path d="M583.6829876176165,-26.4581173154952L583.6829876176165,145.56932521901578M583.6829876176165,145.56932521901578L672.574408278708,151.42735661499833" style="fill:none;stroke:rgb(0,0,0);stroke-width:1;stroke-linecap:round"></path><path d="M681.7879736446927,50.86075579227711L684.5512925762018,48.65451895333813L595.6598719151103,42.79648755735559zM681.7879736446927,60.60125064704979L592.8965529836012,54.743219251067245L684.5512925762018,58.3950138081108z" style="fill:rgb(153,221,255); fill-opacity: 0.4"></path><path d="M803.3783463652197,174.05924786572373L736.7097839269576,169.6657245202328L858.5661050243293,129.9972813573187z" style="fill:rgb(238,238,238); fill-opacity: 0.27"></path><path d="M684.5512723315162,48.65451742972663L684.5512723315162,58.395012090973054M684.5512723315162,58.395012090973054L681.7879525215716,60.601249631255854M684.5512723315162,58.395012090973054L748.6910976970432,60.202552720173315M684.5512925762018,48.654518953338126L684.5512925762018,58.3950138081108M684.5512925762018,58.3950138081108L681.7879736446926,60.601250647049774" style="fill:none;stroke:rgb(0,0,0);stroke-width:1;stroke-linecap:round"></path><path d="M791.8975425860672,125.60375801182776L736.7097839269576,169.6657245202328L736.7097839269576,-24.86704299202015z" style="fill:rgb(238,238,238); fill-opacity: 0.27"></path><path d="M592.8965529836012,54.743219251067245L681.7879736446927,60.60125064704979L681.7879736446927,50.86075579227711z" style="fill:rgb(153,221,255); fill-opacity: 0.4"></path><path d="M684.5512723315162,48.65451742972663L681.7879525215716,50.86075497000942M684.5512723315162,48.65451742972663L748.6910976970432,60.202552720173315M684.5512925762018,48.654518953338126L681.7879736446926,50.86075579227711" style="fill:none;stroke:rgb(0,0,0);stroke-width:1;stroke-linecap:round"></path><path d="M684.5512924540724,48.65451894528968L684.5512924540724,58.395013800062344L681.7879735225631,60.601250639001336z" style="fill:rgb(255,187,187); fill-opacity: 0.4"></path><path d="M681.7879736446927,60.60125064704979L684.5512925762018,58.3950138081108L684.5512925762018,48.65451895333813z" style="fill:rgb(153,221,255); fill-opacity: 0.4"></path><path d="M872.3090739368563,-15.930917410458616L927.496832595966,-59.99288391886364L924.2907523106425,-60.20416773939197z" style="fill:rgb(238,238,238); fill-opacity: 0.27"></path><path d="M684.5512924540724,48.65451894528968L681.7879735225631,60.601250639001336L681.7879735225631,50.86075578422866z" style="fill:rgb(255,187,187); fill-opacity: 0.4"></path><path d="M681.7879736446927,50.86075579227711L681.7879736446927,60.60125064704979L684.5512925762018,48.65451895333813z" style="fill:rgb(153,221,255); fill-opacity: 0.4"></path><path d="M681.7879525215716,60.601249631255854L681.7879525215716,50.86075497000942M681.7879525215716,60.601249631255854L748.6910976970432,60.202552720173315M681.7879736446926,50.86075579227711L681.7879736446926,60.601250647049774" style="fill:none;stroke:rgb(0,0,0);stroke-width:1;stroke-linecap:round"></path><path d="M684.5512924540724,58.395013800062344L684.5512924540724,48.65451894528968L748.6911176994424,60.202554497639035z" style="fill:rgb(255,187,187); fill-opacity: 0.4"></path><path d="M681.7879525215716,50.86075497000942L748.6910976970432,60.202552720173315" style="fill:none;stroke:rgb(0,0,0);stroke-width:1;stroke-linecap:round"></path><path d="M681.7879735225631,60.601250639001336L684.5512924540724,58.395013800062344L748.6911176994424,60.202554497639035zM684.5512924540724,48.65451894528968L681.7879735225631,50.86075578422866L748.6911176994424,60.202554497639035zM681.7879735225631,50.86075578422866L681.7879735225631,60.601250639001336L748.6911176994424,60.202554497639035z" style="fill:rgb(255,187,187); fill-opacity: 0.4"></path><path d="M672.574408278708,-20.60008591951267L672.574408278708,151.42735661499833" style="fill:none;stroke:rgb(0,0,0);stroke-width:1;stroke-linecap:round"></path><path d="M872.3090739368563,178.60185010179435L869.1029936515329,178.39056628126602L927.496832595966,134.5398835933893zM583.6829876176165,145.5693252190158L672.574408278708,151.42735661499836L672.574408278708,-20.600085919512658zM583.6829876176165,-26.458117315495198L583.6829876176165,145.5693252190158L672.574408278708,-20.600085919512658zM803.3783463652197,-20.473519646529212L803.3783463652197,174.05924786572373L858.5661050243293,-64.53548615493425z" style="fill:rgb(238,238,238); fill-opacity: 0.27"></path><path d="M583.6829876176165,-26.4581173154952L672.574408278708,-20.60008591951267" style="fill:none;stroke:rgb(0,0,0);stroke-width:1;stroke-linecap:round"></path><path d="M736.7097839269576,-24.86704299202015L803.3783463652197,-20.473519646529212L791.8975425860672,-68.92900950042518zM924.2907523106425,134.32859977286097L869.1029936515329,178.39056628126602L869.1029936515329,-16.14220123098694z" style="fill:rgb(238,238,238); fill-opacity: 0.27"></path><path d="M814.9892838741889,31.0849600769982L748.3207214359268,26.69143673150725M748.3207214359268,16.95094187673458L748.3207214359268,26.69143673150725M748.3207214359268,26.69143673150725L745.5574025044175,28.897673570446234M814.9892838741889,21.344465222225526L748.3207214359268,16.95094187673458M748.3207214359268,16.95094187673458L745.5574025044175,19.15717871567356" style="fill:none;stroke:rgb(0,0,0);stroke-width:1;stroke-linecap:round"></path><path d="M748.3207214359268,16.950941876734586L748.3207214359268,26.69143673150726L745.5574025044175,19.157178715673563zM814.9892838741889,31.084960076998193L748.3207214359268,26.69143673150726L748.3207214359268,16.950941876734586zM748.3207214359268,26.69143673150726L745.5574025044175,28.89767357044624L745.5574025044175,19.157178715673563z" style="fill:rgb(153,221,255); fill-opacity: 0.4"></path><path d="M736.7097839269576,-24.867042992020153L736.7097839269576,169.6657245202328M736.7097839269576,169.6657245202328L803.3783463652198,174.05924786572373" style="fill:none;stroke:rgb(0,0,0);stroke-width:1;stroke-linecap:round"></path><path d="M745.5574025044175,28.89767357044624L748.3207214359268,26.69143673150726L814.9892838741889,31.084960076998193z" style="fill:rgb(153,221,255); fill-opacity: 0.4"></path><path d="M745.5574025044175,19.15717871567356L745.5574025044175,28.897673570446234M745.5574025044175,28.897673570446234L812.2259649426796,33.291196915937185M745.5574025044175,19.15717871567356L812.2259649426796,23.55070206116451" style="fill:none;stroke:rgb(0,0,0);stroke-width:1;stroke-linecap:round"></path><path d="M814.9892838741889,21.344465222225526L814.9892838741889,31.084960076998193L748.3207214359268,16.950941876734586z" style="fill:rgb(153,221,255); fill-opacity: 0.4"></path><path d="M872.3090739368563,-15.930917410458616L872.3090739368563,178.60185010179435L927.496832595966,-59.99288391886364z" style="fill:rgb(238,238,238); fill-opacity: 0.27"></path><path d="M745.5574025044175,19.157178715673563L812.2259649426796,23.5507020611645L748.3207214359268,16.950941876734586zM745.5574025044175,19.157178715673563L745.5574025044175,28.89767357044624L812.2259649426796,23.5507020611645zM812.2259649426796,23.5507020611645L814.9892838741889,21.344465222225526L748.3207214359268,16.950941876734586z" style="fill:rgb(153,221,255); fill-opacity: 0.4"></path><path d="M814.9892747954347,21.344463898170325L814.9892747954347,31.08495875294299M814.9892747954347,31.08495875294299L812.2259558639254,33.29119559188197M814.9892747954347,31.08495875294299L880.9353013214737,31.75478997612094M814.9892838741889,21.344465222225526L814.9892838741889,31.0849600769982M814.9892838741889,31.0849600769982L812.2259649426796,33.291196915937185" style="fill:none;stroke:rgb(0,0,0);stroke-width:1;stroke-linecap:round"></path><path d="M812.2259649426796,33.29119691593717L745.5574025044175,28.89767357044624L814.9892838741889,31.084960076998193z" style="fill:rgb(153,221,255); fill-opacity: 0.4"></path><path d="M814.9892747954347,21.344463898170325L812.2259558639254,23.55070073710931M814.9892747954347,21.344463898170325L880.9353013214737,31.75478997612094M814.9892838741889,21.344465222225526L812.2259649426796,23.55070206116451" style="fill:none;stroke:rgb(0,0,0);stroke-width:1;stroke-linecap:round"></path><path d="M812.2259649426796,33.29119691593717L814.9892838741889,31.084960076998193L814.9892838741889,21.344465222225526z" style="fill:rgb(153,221,255); fill-opacity: 0.4"></path><path d="M814.9892853113702,21.34446531693717L814.9892853113702,31.08496017170984L812.2259663798609,33.29119701064882z" style="fill:rgb(255,187,187); fill-opacity: 0.4"></path><path d="M745.5574025044175,28.89767357044624L812.2259649426796,33.29119691593717L812.2259649426796,23.5507020611645zM812.2259649426796,23.5507020611645L812.2259649426796,33.29119691593717L814.9892838741889,21.344465222225526z" style="fill:rgb(153,221,255); fill-opacity: 0.4"></path><path d="M814.9892853113702,21.34446531693717L812.2259663798609,33.29119701064882L812.2259663798609,23.55070215587615z" style="fill:rgb(255,187,187); fill-opacity: 0.4"></path><path d="M803.3783463652198,-20.473519646529216L803.3783463652198,174.05924786572373" style="fill:none;stroke:rgb(0,0,0);stroke-width:1;stroke-linecap:round"></path><path d="M814.9892853113702,31.08496017170984L814.9892853113702,21.34446531693717L880.9353118374091,31.75479139488777z" style="fill:rgb(255,187,187); fill-opacity: 0.4"></path><path d="M812.2259558639254,33.29119559188197L812.2259558639254,23.55070073710931M812.2259558639254,33.29119559188197L880.9353013214737,31.75478997612094M812.2259649426796,23.55070206116451L812.2259649426796,33.291196915937185" style="fill:none;stroke:rgb(0,0,0);stroke-width:1;stroke-linecap:round"></path><path d="M869.1029936515329,-16.14220123098694L872.3090739368563,-15.930917410458616L924.2907523106425,-60.20416773939197z" style="fill:rgb(238,238,238); fill-opacity: 0.27"></path><path d="M812.2259663798609,33.29119701064882L814.9892853113702,31.08496017170984L880.9353118374091,31.75479139488777z" style="fill:rgb(255,187,187); fill-opacity: 0.4"></path><path d="M812.2259558639254,23.55070073710931L880.9353013214737,31.75478997612094" style="fill:none;stroke:rgb(0,0,0);stroke-width:1;stroke-linecap:round"></path><path d="M814.9892853113702,21.34446531693717L812.2259663798609,23.55070215587615L880.9353118374091,31.75479139488777zM812.2259663798609,23.55070215587615L812.2259663798609,33.29119701064882L880.9353118374091,31.75479139488777z" style="fill:rgb(255,187,187); fill-opacity: 0.4"></path><path d="M736.7097839269576,169.6657245202328L803.3783463652197,174.05924786572373L803.3783463652197,-20.473519646529212zM736.7097839269576,-24.86704299202015L736.7097839269576,169.6657245202328L803.3783463652197,-20.473519646529212z" style="fill:rgb(238,238,238); fill-opacity: 0.27"></path><path d="M869.1029936515329,-16.142201230986938L869.1029936515329,178.390566281266M869.1029936515329,178.390566281266L872.3090739368564,178.60185010179435M872.3090739368564,-15.930917410458624L872.3090739368564,178.60185010179435M736.7097839269576,-24.867042992020153L803.3783463652198,-20.473519646529216" style="fill:none;stroke:rgb(0,0,0);stroke-width:1;stroke-linecap:round"></path><path d="M869.1029936515329,178.39056628126602L872.3090739368563,178.60185010179435L872.3090739368563,-15.930917410458616zM869.1029936515329,-16.14220123098694L869.1029936515329,178.39056628126602L872.3090739368563,-15.930917410458616z" style="fill:rgb(238,238,238); fill-opacity: 0.27"></path><path d="M869.1029936515329,-16.142201230986938L872.3090739368564,-15.930917410458624" style="fill:none;stroke:rgb(0,0,0);stroke-width:1;stroke-linecap:round"></path></svg>